<svg xmlns="http://www.w3.org/2000/svg" xmlns:xlink="http://www.w3.org/1999/xlink" version="1.1" id="Layer_1" x="0px" y="0px" width="100px" height="100px" viewBox="0 0 100 100" enable-background="new 0 0 100 100" xml:space="preserve">
<g>
	
		<ellipse transform="matrix(-0.707 0.7072 -0.7072 -0.707 129.1299 98.1676)" fill="none" cx="44.231" cy="75.831" rx="4.258" ry="4.186"/>
	<path fill="none" d="M38.13,33.28v-3.636h34.119l0.936-0.935l-40.984,0.003l-20.039,2.301c14.112,6.664,36.254,7.868,50.882,7.837   l5.571-5.571H38.13z"/>
	
		<ellipse transform="matrix(-0.7072 0.707 -0.707 -0.7072 169.5678 0.5716)" fill="none" cx="84.666" cy="35.4" rx="4.261" ry="4.187"/>
	<path fill="#000000" d="M76.825,25.074l-44.727,0.002L1.297,28.6l4.078,2.751c13.29,8.969,37.208,10.972,54.01,11.161   L33.877,68.017c-5.019,5.018-5.019,13.153-0.001,18.169c5.016,5.017,13.148,5.014,18.167-0.004L94.94,43.284   c5.017-5.017,5.017-13.148,0-18.164C89.938,20.118,81.846,20.104,76.825,25.074z M12.162,31.014l20.039-2.299l40.984-0.003   l-0.936,0.935H38.13v3.636h30.485l-5.571,5.571C48.416,38.881,26.273,37.678,12.162,31.014z M47.192,78.79   c-1.663,1.664-4.337,1.684-5.972,0.052c-1.632-1.637-1.614-4.31,0.051-5.974c1.662-1.661,4.338-1.683,5.972-0.049   C48.876,74.454,48.854,77.129,47.192,78.79z M87.619,38.361c-1.663,1.666-4.338,1.687-5.974,0.053   c-1.637-1.634-1.611-4.31,0.052-5.974c1.662-1.663,4.336-1.686,5.971-0.052C89.305,34.025,89.281,36.7,87.619,38.361z"/>
</g>
</svg>